<?xml version="1.0" encoding="UTF-8" standalone="no"?>
<svg
   xmlns:dc="http://purl.org/dc/elements/1.1/"
   xmlns:cc="http://creativecommons.org/ns#"
   xmlns:rdf="http://www.w3.org/1999/02/22-rdf-syntax-ns#"
   xmlns:svg="http://www.w3.org/2000/svg"
   xmlns="http://www.w3.org/2000/svg"
   xmlns:sodipodi="http://sodipodi.sourceforge.net/DTD/sodipodi-0.dtd"
   xmlns:inkscape="http://www.inkscape.org/namespaces/inkscape"
   version="1.1"
   id="Layer_1"
   x="0px"
   y="0px"
   width="600px"
   height="138.596px"
   viewBox="0 0 600 138.596"
   enable-background="new 0 0 600 138.596"
   xml:space="preserve"
   sodipodi:docname="logo.svg"
   inkscape:version="1.0 (4035a4fb49, 2020-05-01)"><metadata
   id="metadata9"><rdf:RDF><cc:Work
       rdf:about=""><dc:format>image/svg+xml</dc:format><dc:type
         rdf:resource="http://purl.org/dc/dcmitype/StillImage" /></cc:Work></rdf:RDF></metadata><defs
   id="defs7" /><sodipodi:namedview
   inkscape:document-rotation="0"
   pagecolor="#ffffff"
   bordercolor="#666666"
   borderopacity="1"
   objecttolerance="10"
   gridtolerance="10"
   guidetolerance="10"
   inkscape:pageopacity="0"
   inkscape:pageshadow="2"
   inkscape:window-width="1366"
   inkscape:window-height="715"
   id="namedview5"
   showgrid="false"
   inkscape:zoom="0.48625"
   inkscape:cx="295.04454"
   inkscape:cy="240.16434"
   inkscape:window-x="-8"
   inkscape:window-y="-8"
   inkscape:window-maximized="1"
   inkscape:current-layer="Layer_1" />

<g
   style="font-style:normal;font-weight:normal;font-size:29.9482px;line-height:1.25;font-family:sans-serif;fill:#ffffff;fill-opacity:1;stroke:none;stroke-width:0.748707"
   id="text13"
   transform="scale(0.97489357,1.025753)"
   aria-label="Aina "><path
     id="path10"
     style="font-style:normal;font-variant:normal;font-weight:normal;font-stretch:normal;font-size:50.9122px;font-family:'Barokah Signature';-inkscape-font-specification:'Barokah Signature, Normal';font-variant-ligatures:normal;font-variant-caps:normal;font-variant-numeric:normal;font-variant-east-asian:normal;fill:#ffffff;stroke-width:0.748707"
     d="m 39.866209,65.354366 q 4.785747,-1.450998 9.215109,-2.698347 4.454817,-1.247349 8.629618,-2.341961 4.200256,-1.094612 8.171408,-2.011032 3.971152,-0.941876 7.815023,-1.731015 2.163768,-4.836659 4.378449,-9.647862 2.214681,-4.836659 4.556642,-9.59695 2.367417,-4.76029 4.862115,-9.418757 2.520154,-4.658466 5.243957,-9.164196 1.400085,-2.291049 2.927451,-4.556642 1.527366,-2.265593 3.182013,-4.3275371 1.654646,-2.0874002 3.411116,-3.8693273 1.75647,-1.8073831 3.58931,-3.1056442 1.8583,-1.3237173 3.74205,-2.06194417 1.90921,-0.76368301 3.84387,-0.76368301 2.24014,0 4.07298,1.09461228 1.85829,1.0691563 3.3602,2.9783638 1.50191,1.8837514 2.67289,4.4802737 1.19644,2.596522 2.0874,5.600342 0.91642,3.00382 1.57828,6.313113 0.68731,3.283837 1.14552,6.618586 0.48367,3.334749 0.78914,6.567674 0.30548,3.207469 0.48367,6.084008 0.17819,2.851083 0.25456,5.218501 0.10182,2.341961 0.15274,3.945695 2.7238,-0.254561 5.52397,-0.509122 2.82563,-0.254561 5.80399,-0.534578 0.0764,0 0.15274,0 0.0764,-0.02546 0.15273,-0.02546 0.73823,0 1.19644,0.330929 0.45821,0.305473 0.66186,0.789139 0.22911,0.45821 0.17819,1.043701 -0.0255,0.560034 -0.30547,1.069156 -0.25456,0.483666 -0.71277,0.865507 -0.45821,0.356386 -1.12007,0.407298 -3.05473,0.280017 -5.90581,0.560034 -2.82563,0.254561 -5.52398,0.483666 0,1.170981 0,2.341961 0.0255,1.170981 0.0255,2.341961 0,16.52101 -0.84005,33.169299 -0.84006,16.648288 -2.64744,33.067478 -0.0764,0.58549 -0.30547,1.01824 -0.20365,0.45821 -0.53458,0.73823 -0.30547,0.30547 -0.68731,0.45821 -0.38185,0.15273 -0.76369,0.15273 -0.43275,0 -0.84005,-0.20364 -0.4073,-0.1782 -0.71277,-0.56004 -0.30547,-0.35638 -0.45821,-0.91642 -0.12728,-0.53458 -0.0509,-1.2728 0.96733,-8.24778 1.83284,-16.54647 0.89096,-8.298688 1.55282,-16.622832 0.66186,-8.324145 1.0437,-16.64829 0.4073,-8.324145 0.4073,-16.64829 0,-0.890963 0,-1.781927 0,-0.916419 -0.0255,-1.807383 -5.11667,0.45821 -9.72423,0.865507 -4.60755,0.407298 -8.85872,0.814596 -4.25117,0.407297 -8.22232,0.840051 -3.945698,0.432754 -7.789569,0.91642 -3.818415,0.483665 -7.611374,1.069156 -3.792959,0.58549 -7.713198,1.298261 -0.91642,2.061944 -1.83284,4.123888 -0.916419,2.036488 -1.832839,4.098432 -2.978364,6.669499 -5.982183,13.313541 -2.978364,6.644042 -6.134921,13.211716 -1.120068,2.341961 -2.469241,5.065764 -1.323718,2.7238 -2.87654,5.54943 -1.552822,2.85108 -3.334749,5.67671 -1.781927,2.85108 -3.818415,5.44761 -2.011032,2.62197 -4.276625,4.86211 -2.265593,2.26559 -4.811203,3.92024 -2.54561,1.65465 -5.371237,2.59652 -2.825627,0.96733 -5.956728,0.96733 -3.232924,0 -5.956727,-1.14552 -2.698347,-1.14552 -4.887571,-3.08019 -2.163769,-1.93466 -3.818415,-4.50573 -1.629191,-2.57106 -2.749259,-5.42215 -1.094613,-2.85108 -1.6546468,-5.82944 -0.5345781,-2.97837 -0.5345781,-5.72763 0,-4.785744 1.0946119,-9.036913 1.094613,-4.251168 3.080189,-7.942303 2.011031,-3.716591 4.811203,-6.847691 2.825627,-3.156556 6.2622,-5.702166 3.46203,-2.571067 7.433182,-4.50573 3.971151,-1.934664 8.273232,-3.258381 z M 28.512788,125.43076 q 2.698347,0 5.167589,-1.01824 2.494698,-0.99279 4.760291,-2.74926 2.265593,-1.73101 4.302081,-4.07298 2.061944,-2.34196 3.894783,-5.01485 1.832839,-2.64743 3.436574,-5.49852 1.603734,-2.85108 2.978363,-5.60034 1.400086,-2.7238 2.571066,-5.218498 1.196437,-2.520154 2.138313,-4.531186 3.283837,-6.898603 6.364025,-13.77175 3.080188,-6.873147 6.185832,-13.848119 0.407298,-0.890964 0.78914,-1.781927 0.407297,-0.890964 0.814595,-1.781927 -3.334749,0.687315 -6.873147,1.476454 -3.512942,0.789139 -7.305901,1.756471 -3.792959,0.941875 -7.916847,2.036488 -4.123889,1.094612 -8.655075,2.392873 -3.971151,1.120069 -7.687742,2.901996 -3.691135,1.756471 -6.949515,4.098432 -3.258381,2.341961 -5.956728,5.269413 -2.698347,2.927451 -4.63301,6.364025 -1.934664,3.436573 -3.00382,7.382269 -1.069156,3.945695 -1.069156,8.324146 0,2.29105 0.45821,4.86211 0.483665,2.57107 1.425541,5.11668 0.941876,2.54561 2.341961,4.86212 1.425542,2.34196 3.258381,4.12388 1.858296,1.80739 4.149345,2.85109 2.291049,1.06915 5.014851,1.06915 z M 127.0279,49.240654 q -0.0509,-1.221893 -0.15274,-3.258381 -0.10182,-2.036488 -0.30547,-4.607554 -0.1782,-2.596522 -0.48367,-5.600342 -0.28002,-3.00382 -0.73823,-6.13492 -0.43275,-3.156557 -1.01824,-6.313113 -0.58549,-3.156556 -1.37463,-6.058552 -0.76368,-2.901995 -1.73101,-5.396693 -0.96734,-2.5201541 -2.18923,-4.3784494 -1.19644,-1.8582954 -2.64743,-2.9019955 -1.451,-1.0691562 -3.18202,-1.0691562 -1.40008,0 -2.87653,0.7127708 -1.451,0.6873147 -2.92746,1.9346636 -1.45099,1.2218928 -2.92745,2.9019955 -1.451,1.6546462 -2.85108,3.5893102 -1.37463,1.934664 -2.723804,4.04752 -1.323717,2.0874 -2.520154,4.1748 -2.418329,4.174801 -4.683922,8.451426 -2.265593,4.276625 -4.403906,8.629618 -2.138312,4.352993 -4.200256,8.756898 -2.061944,4.37845 -4.04752,8.782355 5.574886,-1.069156 11.149772,-1.909208 5.574886,-0.865507 11.40433,-1.603734 5.85491,-0.738227 12.14256,-1.400085 6.28766,-0.661859 13.28809,-1.349174 z" /><path
     id="path12"
     style="font-style:normal;font-variant:normal;font-weight:normal;font-stretch:normal;font-size:50.9122px;font-family:'Barokah Signature';-inkscape-font-specification:'Barokah Signature, Normal';font-variant-ligatures:normal;font-variant-caps:normal;font-variant-numeric:normal;font-variant-east-asian:normal;fill:#ffffff;stroke-width:0.748707"
     d="m 153.29382,76.682331 q 0.58549,0 0.94187,0.305473 0.38184,0.280017 0.61095,0.763683 0.2291,0.483666 0.30547,1.120068 0.10183,0.636403 0.10183,1.323717 0,1.196437 -0.20365,2.596523 -0.20365,1.400085 -0.61095,2.800171 -0.38184,1.400085 -0.96733,2.67289 -0.56003,1.272805 -1.2728,2.240137 -0.0509,0.763683 -0.10183,1.527366 -0.0509,0.763683 -0.0509,1.527366 0,0.840052 0.15274,2.138313 0.15273,1.298261 0.50912,2.749259 0.35638,1.450997 0.99279,2.901993 0.6364,1.47646 1.57827,2.62198 0.94188,1.17098 2.2656,1.90921 1.32371,0.73822 3.08018,0.73822 1.34918,0 2.64744,-0.48366 1.29826,-0.45821 2.52015,-1.27281 1.2219,-0.81459 2.36742,-1.9092 1.14552,-1.06916 2.16377,-2.31651 1.0437,-1.272804 1.96012,-2.621977 0.91642,-1.37463 1.6801,-2.672891 0.76368,-1.323717 1.37463,-2.494698 0.6364,-1.196436 1.12007,-2.138312 0.20365,-0.432754 0.48366,-0.610946 0.30548,-0.178193 0.61095,-0.178193 0.30547,0 0.58549,0.203649 0.28002,0.178192 0.43276,0.483666 0.15273,0.305473 0.15273,0.738226 0,0.407298 -0.28002,0.865508 -0.35638,0.610946 -0.81459,1.425542 -0.45821,0.814595 -0.94188,1.680102 -0.48366,0.840051 -0.96733,1.654647 -0.45821,0.789139 -0.84005,1.400085 -1.32372,2.112852 -2.90199,4.098432 -1.55283,2.01103 -3.43658,3.56385 -1.88375,1.55283 -4.09843,2.4947 -2.21468,0.94188 -4.86212,0.94188 -2.36741,0 -4.12388,-0.78914 -1.75647,-0.78914 -3.02928,-2.11286 -1.2728,-1.29826 -2.11286,-2.97836 -0.81459,-1.6801 -1.29826,-3.46203 -0.48366,-1.756472 -0.66186,-3.462031 -0.20364,-1.731014 -0.20364,-3.105644 0,-0.432753 0.0764,-1.400085 0.0764,-0.967332 0.22911,-2.240137 0.15274,-1.272805 0.38184,-2.749259 0.2291,-1.476454 0.53458,-2.927452 0.33093,-1.476453 0.73823,-2.825627 0.40729,-1.374629 0.89096,-2.418329 0.48366,-1.069156 1.0437,-1.680103 0.58549,-0.636402 1.24735,-0.636402 z m -0.61095,-11.658894 q 0.10183,-0.992788 0.45821,-1.731015 0.38184,-0.763683 0.91642,-1.247349 0.53458,-0.509122 1.17098,-0.738227 0.6364,-0.254561 1.27281,-0.254561 0.66185,0 1.24735,0.254561 0.58549,0.229105 1.01824,0.738227 0.45821,0.483666 0.66186,1.247349 0.2291,0.738227 0.12728,1.731015 -0.10183,1.018244 -0.48367,1.807383 -0.35638,0.789139 -0.89096,1.298261 -0.53458,0.509122 -1.17098,0.789139 -0.6364,0.254561 -1.29826,0.254561 -0.63641,0 -1.2219,-0.254561 -0.58549,-0.254561 -1.01824,-0.763683 -0.43275,-0.534578 -0.66186,-1.298261 -0.2291,-0.789139 -0.12728,-1.832839 z" /><path
     id="path14"
     style="font-style:normal;font-variant:normal;font-weight:normal;font-stretch:normal;font-size:50.9122px;font-family:'Barokah Signature';-inkscape-font-specification:'Barokah Signature, Normal';font-variant-ligatures:normal;font-variant-caps:normal;font-variant-numeric:normal;font-variant-east-asian:normal;fill:#ffffff;stroke-width:0.748707"
     d="m 175.78826,102.67301 q 0,-3.156557 0.15274,-6.287658 0.12728,-3.1311 0.28001,-6.313113 0.12728,-3.182012 0.15274,-6.491305 0.0255,-3.309293 -0.20365,-6.822235 -0.0509,-0.789139 0.56003,-1.247349 0.61095,-0.45821 1.34918,-0.45821 0.53458,0 0.99279,0.254561 0.48366,0.254561 0.68731,0.814595 0.15274,0.356386 0.22911,1.527366 0.0764,1.170981 0.10182,2.774715 0.0255,1.603735 0.0255,3.46203 0,1.832839 -0.0255,3.512942 0,1.680103 -0.0255,3.029276 0,1.349173 0,1.934663 0.30548,-0.814595 0.66186,-1.807383 0.35639,-0.992788 0.76369,-2.0874 0.43275,-1.120068 0.89096,-2.291049 0.48367,-1.170981 1.01824,-2.316505 0.58549,-1.272805 1.37463,-2.672891 0.78914,-1.400085 1.80739,-2.596522 1.0437,-1.196437 2.34196,-1.96012 1.29826,-0.789139 2.90199,-0.789139 1.98558,0 3.28384,0.789139 1.32372,0.763683 2.0874,2.087401 0.76368,1.298261 1.06916,3.054732 0.30547,1.756471 0.30547,3.742046 0,2.087401 -0.30547,4.149345 -0.28002,2.061944 -0.63641,4.123888 -0.35638,2.036488 -0.66186,4.072976 -0.28001,2.036488 -0.28001,4.098434 0,0.84005 0.12728,1.65464 0.12728,0.84006 0.48366,1.50191 0.35639,0.66186 0.99279,1.06916 0.6364,0.4073 1.65465,0.4073 1.83284,0 3.48748,-0.78914 1.68011,-0.78914 3.18202,-2.0874 1.52736,-1.29826 2.87654,-2.97836 1.34917,-1.680107 2.49469,-3.436578 1.14553,-1.781927 2.0874,-3.487486 0.96734,-1.731015 1.70556,-3.1311 0.20365,-0.432754 0.48367,-0.610947 0.30547,-0.178192 0.61095,-0.178192 0.30547,0 0.58549,0.178192 0.28001,0.178193 0.43275,0.509122 0.15274,0.305474 0.15274,0.738227 0,0.407298 -0.28002,0.865508 -0.35639,0.610946 -0.8146,1.425541 -0.45821,0.814596 -0.94187,1.654647 -0.48367,0.840051 -0.96733,1.654646 -0.45821,0.78914 -0.84006,1.400086 -1.32371,2.112854 -2.90199,4.098434 -1.57828,2.01103 -3.46203,3.56385 -1.8583,1.57828 -4.07298,2.52016 -2.21468,0.94187 -4.86211,0.94187 -1.57828,0 -2.57107,-0.61094 -0.96733,-0.58549 -1.52736,-1.55283 -0.56004,-0.96733 -0.76369,-2.21468 -0.17819,-1.22189 -0.17819,-2.52015 0,-1.78193 0.17819,-3.563855 0.1782,-1.807384 0.38184,-3.589311 0.22911,-1.781927 0.4073,-3.563854 0.1782,-1.781927 0.1782,-3.58931 0,-1.807383 -0.20365,-3.436573 -0.1782,-1.629191 -0.66186,-2.851084 -0.48367,-1.221892 -1.29826,-1.934663 -0.8146,-0.738227 -2.0874,-0.738227 -0.94188,0 -1.83284,0.687315 -0.86551,0.687314 -1.60374,1.680102 -0.73822,0.967332 -1.32371,2.011032 -0.58549,1.0437 -0.94188,1.756471 -0.78914,1.578278 -1.47645,3.309293 -0.66186,1.731015 -1.2219,3.487486 -0.56003,1.731015 -1.01824,3.385661 -0.43275,1.654647 -0.78914,3.105645 -0.15274,0.610946 -0.38184,1.731012 -0.20365,1.14553 -0.38184,2.31651 -0.15274,1.09461 -0.78914,1.62919 -0.6364,0.56003 -1.34918,0.56003 -0.71277,0 -1.2728,-0.56003 -0.58549,-0.56004 -0.58549,-1.70556 z" /><path
     id="path16"
     style="font-style:normal;font-variant:normal;font-weight:normal;font-stretch:normal;font-size:50.9122px;font-family:'Barokah Signature';-inkscape-font-specification:'Barokah Signature, Normal';font-variant-ligatures:normal;font-variant-caps:normal;font-variant-numeric:normal;font-variant-east-asian:normal;fill:#ffffff;stroke-width:0.748707"
     d="m 214.60564,95.112547 q 0,-1.960119 0.66185,-3.818415 0.63641,-1.883751 1.70556,-3.538398 1.09462,-1.680102 2.52016,-3.080188 1.45099,-1.425541 3.05473,-2.443785 2.74926,-1.756471 5.90581,-2.596523 3.18202,-0.865507 6.54222,-0.865507 1.68011,0 3.28384,0.254561 1.60373,0.254561 3.05473,0.789139 0.86551,0.330929 1.22189,0.967332 0.38185,0.636402 0.30548,1.272805 -0.0509,0.636402 -0.48367,1.120068 -0.43275,0.45821 -1.14552,0.45821 -0.63641,0 -1.34918,-0.432754 -1.45099,-0.865507 -3.15655,-1.247349 -1.68011,-0.407297 -3.46203,-0.407297 -2.46924,0 -4.70938,0.661858 -2.21468,0.636403 -4.09843,1.934664 -1.27281,0.890964 -2.39288,2.112856 -1.09461,1.221893 -1.9092,2.647435 -0.8146,1.400085 -1.27281,2.952907 -0.45821,1.552823 -0.45821,3.131101 0,1.221893 0.35639,2.061944 0.38184,0.840051 0.99278,1.374629 0.63641,0.509122 1.47646,0.738227 0.84005,0.203649 1.75647,0.203649 0.86551,0 1.75647,-0.152736 0.91642,-0.152737 1.78193,-0.407298 0.8655,-0.280017 1.65464,-0.610946 0.78914,-0.356386 1.42555,-0.738227 2.13831,-1.272805 3.79295,-3.156557 1.65465,-1.883751 2.74926,-4.098432 0.0764,-0.152737 0.20365,-0.432754 0.12728,-0.305473 0.25456,-0.636402 0.15274,-0.356386 0.30548,-0.712771 0.15273,-0.381842 0.30547,-0.687315 0.30547,-0.687314 0.89096,-1.018244 0.58549,-0.356385 1.17098,-0.356385 0.43276,0 0.78914,0.178192 0.38184,0.152737 0.6364,0.483666 0.28002,0.33093 0.38185,0.814596 0.10182,0.483666 -0.0255,1.145524 -0.0764,0.356386 -0.17819,0.763683 -0.0764,0.381842 -0.1782,0.763683 -0.10182,0.381842 -0.17819,0.712771 -0.0764,0.330929 -0.12728,0.560034 -0.15273,0.636403 -0.33093,1.527366 -0.15273,0.890964 -0.30547,1.934664 -0.12728,1.018244 -0.22911,2.138312 -0.0764,1.094613 -0.0764,2.214681 0,1.374629 0.17819,2.647439 0.20365,1.2728 0.68731,2.24013 0.50913,0.96733 1.34918,1.55282 0.84005,0.58549 2.11285,0.58549 1.34918,0 2.64744,-0.48366 1.29826,-0.45821 2.52015,-1.27281 1.22189,-0.81459 2.36742,-1.9092 1.14552,-1.06916 2.16377,-2.31651 1.0437,-1.272804 1.93466,-2.621977 0.91642,-1.37463 1.6801,-2.672891 0.76369,-1.323717 1.40009,-2.494698 0.6364,-1.196436 1.12007,-2.138312 0.2291,-0.432754 0.50912,-0.610946 0.30547,-0.178193 0.58549,-0.178193 0.30547,0 0.58549,0.203649 0.28002,0.178192 0.43275,0.483666 0.15274,0.305473 0.15274,0.738226 0,0.407298 -0.28002,0.865508 -0.35638,0.610946 -0.81459,1.425542 -0.45821,0.814595 -0.94188,1.680102 -0.48366,0.840051 -0.96733,1.654647 -0.45821,0.789139 -0.84005,1.400085 -1.32372,2.112852 -2.902,4.098432 -1.55282,2.01103 -3.43657,3.56385 -1.85829,1.55283 -4.09843,2.4947 -2.21468,0.94188 -4.86212,0.94188 -2.11285,0 -3.48748,-0.86551 -1.37463,-0.84005 -2.18923,-2.21468 -0.78914,-1.37463 -1.12007,-3.1311 -0.30547,-1.75647 -0.30547,-3.563855 0,-1.450997 0.15274,-2.800171 0.15273,-1.374629 0.35638,-2.571066 -1.14552,1.781927 -2.82562,3.258381 -1.65465,1.450998 -3.64023,2.469241 -1.96012,1.0437 -4.09843,1.60374 -2.13831,0.56003 -4.25117,0.56003 -1.40008,0 -2.64743,-0.43275 -1.22189,-0.4073 -2.13831,-1.27281 -0.91642,-0.865507 -1.42555,-2.189224 -0.53457,-1.349173 -0.53457,-3.207469 z" /></g><g
   style="font-style:normal;font-weight:normal;font-size:29.9482px;line-height:1.25;font-family:sans-serif;fill:#ffffff;fill-opacity:1;stroke:none;stroke-width:0.748707"
   id="text41"
   transform="scale(0.97489357,1.025753)"
   aria-label="Jaebets.  "><path
     id="path19"
     style="font-style:normal;font-variant:normal;font-weight:normal;font-stretch:normal;font-size:50.9122px;font-family:'Barokah Signature';-inkscape-font-specification:'Barokah Signature, Normal';font-variant-ligatures:normal;font-variant-caps:normal;font-variant-numeric:normal;font-variant-east-asian:normal;fill:#ffffff;stroke-width:0.748707"
     d="m 266.93405,100.37151 q 1.52737,3.89479 3.43658,7.53501 1.90921,3.66568 4.25117,6.84769 2.34196,3.18201 5.14213,5.80399 2.82563,2.64744 6.16037,4.53119 3.36021,1.88375 7.25499,2.92745 3.92024,1.0437 8.45143,1.0437 4.42936,0 8.12049,-1.09461 3.69114,-1.06916 6.72042,-3.02928 3.02927,-1.93466 5.4476,-4.65847 2.44379,-2.69834 4.35299,-5.95672 1.90921,-3.25838 3.33475,-6.97498 1.451,-3.69113 2.4947,-7.611369 1.06916,-3.92024 1.78193,-7.942304 0.73823,-4.04752 1.19643,-7.967759 0.48367,-3.945696 0.76369,-7.687742 0.28002,-3.742047 0.43275,-7.05134 0.20365,-4.276625 0.28002,-8.502338 0.0764,-4.251169 0.0509,-8.298689 0,-4.047519 -0.10182,-7.840478 -0.0764,-3.818416 -0.20365,-7.280445 -0.20365,-6.160377 -0.45821,-12.244385 -0.22911,-6.109464 -0.43276,-12.26984 -4.02206,0.07637 -8.42597,0.178193 -4.37844,0.101824 -8.93509,0.229105 -4.55664,0.101824 -9.2151,0.203648 -4.65847,0.101825 -9.18966,0.203649 -4.53118,0.07637 -8.85872,0.152737 -4.30208,0.07637 -8.22232,0.101824 -0.78914,0 -1.32372,-0.305473 -0.53458,-0.330929 -0.81459,-0.814595 -0.28002,-0.509122 -0.28002,-1.094612 0,-0.585491 0.28002,-1.069157 0.30547,-0.5091217 0.91642,-0.840051 0.6364,-0.3309293 1.57828,-0.3309293 h 0.12728 q 6.54221,0.1781927 13.08443,0.254561 6.56768,0.076368 13.18626,0.076368 10.28427,0 20.33943,-0.1527366 10.05516,-0.1527366 19.8303,-0.3563854 1.09461,-0.025456 1.6801,0.509122 0.58549,0.509122 0.6364,1.145525 0.0509,0.636402 -0.45821,1.17098 -0.50912,0.534578 -1.62919,0.534578 -2.13831,0 -4.60755,0.05091 -2.46924,0.02546 -5.29487,0.07637 0.15274,6.058552 0.2291,12.066191 0.10183,6.00764 0.10183,12.066192 0,3.258381 0,6.847691 0,3.563854 -0.0509,7.356813 -0.0255,3.792959 -0.12728,7.764111 -0.0764,3.971151 -0.28002,8.018671 -0.17819,3.792959 -0.48367,7.993216 -0.28001,4.1748 -0.78914,8.527794 -0.50912,4.352993 -1.29826,8.756898 -0.76368,4.403905 -1.9092,8.65507 -1.14553,4.22572 -2.72381,8.19687 -1.57828,3.97115 -3.71659,7.43318 -2.11285,3.48749 -4.83666,6.36403 -2.69834,2.90199 -6.13492,4.96393 -3.41111,2.06195 -7.61137,3.20747 -4.1748,1.14553 -9.21511,1.14553 -4.68392,0 -8.96055,-0.96733 -4.27662,-0.96734 -8.09504,-2.80018 -3.79296,-1.80738 -7.07679,-4.4039 -3.25838,-2.59652 -5.95673,-5.8549 -2.67289,-3.25838 -4.73484,-7.12771 -2.03648,-3.84387 -3.38566,-8.17141 -0.25456,-0.84005 -0.15273,-1.50191 0.10182,-0.66186 0.43275,-1.120068 0.35639,-0.45821 0.86551,-0.687315 0.50912,-0.254561 1.0437,-0.254561 0.61094,0 1.14552,0.330929 0.56004,0.305474 0.84005,0.992785 z" /><path
     id="path21"
     style="font-style:normal;font-variant:normal;font-weight:normal;font-stretch:normal;font-size:50.9122px;font-family:'Barokah Signature';-inkscape-font-specification:'Barokah Signature, Normal';font-variant-ligatures:normal;font-variant-caps:normal;font-variant-numeric:normal;font-variant-east-asian:normal;fill:#ffffff;stroke-width:0.748707"
     d="m 353.12603,100.62607 q 0,-1.960115 0.66186,-3.818411 0.6364,-1.883751 1.70555,-3.538398 1.09462,-1.680102 2.52016,-3.080188 1.451,-1.425542 3.05473,-2.443786 2.74926,-1.756471 5.90582,-2.596522 3.18201,-0.865507 6.54221,-0.865507 1.68011,0 3.28384,0.254561 1.60374,0.254561 3.05473,0.789139 0.86551,0.330929 1.2219,0.967332 0.38184,0.636402 0.30547,1.272805 -0.0509,0.636402 -0.48367,1.120068 -0.43275,0.45821 -1.14552,0.45821 -0.6364,0 -1.34917,-0.432754 -1.451,-0.865507 -3.15656,-1.247349 -1.6801,-0.407297 -3.46203,-0.407297 -2.46924,0 -4.70938,0.661858 -2.21468,0.636403 -4.09843,1.934664 -1.27281,0.890963 -2.39288,2.112856 -1.09461,1.221893 -1.9092,2.647435 -0.8146,1.400085 -1.27281,2.952907 -0.45821,1.552823 -0.45821,3.131097 0,1.2219 0.35639,2.06195 0.38184,0.84005 0.99279,1.37463 0.6364,0.50912 1.47645,0.73822 0.84005,0.20365 1.75647,0.20365 0.86551,0 1.75647,-0.15273 0.91642,-0.15274 1.78193,-0.4073 0.86551,-0.28002 1.65464,-0.61095 0.78914,-0.35638 1.42555,-0.73822 2.13831,-1.27281 3.79296,-3.156561 1.65464,-1.883751 2.74925,-4.098432 0.0764,-0.152737 0.20365,-0.432754 0.12728,-0.305473 0.25456,-0.636402 0.15274,-0.356386 0.30548,-0.712771 0.15273,-0.381842 0.30547,-0.687315 0.30547,-0.687315 0.89096,-1.018244 0.58549,-0.356385 1.17098,-0.356385 0.43276,0 0.78914,0.178192 0.38185,0.152737 0.63641,0.483666 0.28001,0.33093 0.38184,0.814596 0.10182,0.483665 -0.0255,1.145524 -0.0764,0.356385 -0.17819,0.763683 -0.0764,0.381842 -0.17819,0.763683 -0.10183,0.381842 -0.1782,0.712771 -0.0764,0.330929 -0.12728,0.560034 -0.15273,0.636403 -0.33093,1.527366 -0.15273,0.890964 -0.30547,1.934659 -0.12728,1.01825 -0.2291,2.13832 -0.0764,1.09461 -0.0764,2.21468 0,1.37463 0.17819,2.64743 0.20365,1.27281 0.68731,2.24014 0.50913,0.96733 1.34918,1.55282 0.84005,0.58549 2.11285,0.58549 1.34918,0 2.64744,-0.48366 1.29826,-0.45821 2.52015,-1.27281 1.2219,-0.81459 2.36742,-1.90921 1.14552,-1.06915 2.16377,-2.3165 1.0437,-1.27281 1.93466,-2.62198 0.91642,-1.37463 1.68011,-2.67289 0.76368,-1.323718 1.40008,-2.494699 0.6364,-1.196436 1.12007,-2.138312 0.2291,-0.432754 0.50912,-0.610947 0.30547,-0.178192 0.58549,-0.178192 0.30547,0 0.58549,0.203649 0.28002,0.178192 0.43276,0.483665 0.15273,0.305474 0.15273,0.738227 0,0.407298 -0.28002,0.865508 -0.35638,0.610946 -0.81459,1.425541 -0.45821,0.814596 -0.94188,1.6801 -0.48366,0.84005 -0.96733,1.65465 -0.45821,0.78914 -0.84005,1.40009 -1.32372,2.11285 -2.90199,4.09843 -1.55283,2.01103 -3.43658,3.56385 -1.85829,1.55282 -4.09843,2.4947 -2.21468,0.94187 -4.86212,0.94187 -2.11285,0 -3.48748,-0.8655 -1.37463,-0.84005 -2.18923,-2.21468 -0.78914,-1.37463 -1.12006,-3.1311 -0.30548,-1.75647 -0.30548,-3.56386 0,-1.451 0.15274,-2.80017 0.15274,-1.37463 0.35638,-2.571065 -1.14552,1.781925 -2.82562,3.258385 -1.65465,1.45099 -3.64023,2.46924 -1.96011,1.0437 -4.09843,1.60373 -2.13831,0.56004 -4.25117,0.56004 -1.40008,0 -2.64743,-0.43276 -1.22189,-0.4073 -2.13831,-1.2728 -0.91642,-0.86551 -1.42554,-2.18923 -0.53458,-1.34917 -0.53458,-3.20747 z" /><path
     id="path23"
     style="font-style:normal;font-variant:normal;font-weight:normal;font-stretch:normal;font-size:50.9122px;font-family:'Barokah Signature';-inkscape-font-specification:'Barokah Signature, Normal';font-variant-ligatures:normal;font-variant-caps:normal;font-variant-numeric:normal;font-variant-east-asian:normal;fill:#ffffff;stroke-width:0.748707"
     d="m 396.54539,100.60062 q 0,-2.418331 0.71277,-4.683924 0.68731,-2.265593 1.93466,-4.276625 1.2728,-2.011032 3.00382,-3.665679 1.73101,-1.680102 3.7675,-2.876539 2.06195,-1.196437 4.353,-1.858295 2.29104,-0.661859 4.68392,-0.661859 1.6801,0 2.95291,0.381842 1.29826,0.381841 2.13831,1.069156 0.86551,0.687314 1.29826,1.654646 0.43275,0.941876 0.43275,2.112857 0,1.858295 -0.6364,3.512941 -0.61095,1.654647 -1.70556,3.054733 -1.09461,1.400085 -2.59652,2.520153 -1.47645,1.120069 -3.18201,1.909208 -1.70556,0.763683 -3.58931,1.196437 -1.8583,0.407298 -3.71659,0.407298 -1.57828,0 -3.08019,-0.25456 -1.50191,-0.280019 -2.87654,-0.814597 -0.0255,0.203649 -0.0255,0.432754 0,0.229105 0,0.432753 0,2.29105 0.73823,3.81842 0.76368,1.52736 2.03649,2.44378 1.2728,0.91642 2.97836,1.29826 1.73102,0.4073 3.66568,0.4073 2.13831,0 4.68392,-0.43275 2.54561,-0.4073 5.2185,-1.17098 2.69835,-0.76369 5.37124,-1.83284 2.69835,-1.09462 5.14213,-2.41833 2.44379,-1.34918 4.48028,-2.876542 2.06194,-1.527366 3.46203,-3.207469 0.35638,-0.432754 0.71277,-0.58549 0.35638,-0.178193 0.66186,-0.178193 0.30547,0 0.53457,0.178193 0.25456,0.152736 0.33093,0.432753 0.0764,0.254561 -0.0254,0.610947 -0.0764,0.356385 -0.43276,0.738227 -1.6801,1.934663 -3.97115,3.691134 -2.26559,1.75647 -4.91303,3.25838 -2.64743,1.47645 -5.54943,2.69835 -2.87654,1.22189 -5.80399,2.06194 -2.90199,0.86551 -5.75308,1.32372 -2.82562,0.45821 -5.34578,0.45821 -2.46924,0 -4.65846,-0.50912 -2.18923,-0.50913 -3.84387,-1.70556 -1.65465,-1.19644 -2.62198,-3.18201 -0.96733,-1.98558 -0.96733,-4.91303 z m 4.63301,-5.091222 q 1.52736,1.170981 3.43657,1.832839 1.90921,0.636403 3.81841,0.636403 2.18923,0 4.12389,-0.814595 1.93467,-0.814596 3.38566,-2.189225 1.451,-1.374629 2.29105,-3.156556 0.84005,-1.807384 0.84005,-3.742047 0,-0.687315 -0.20364,-1.272805 -0.20365,-0.610947 -0.66186,-1.0437 -0.45821,-0.45821 -1.19644,-0.687315 -0.71277,-0.254561 -1.75647,-0.254561 -2.39287,0 -4.63301,0.840051 -2.21468,0.840052 -4.07298,2.291049 -1.83284,1.450998 -3.23292,3.411118 -1.37463,1.934663 -2.13831,4.149344 z" /><path
     id="path25"
     style="font-style:normal;font-variant:normal;font-weight:normal;font-stretch:normal;font-size:50.9122px;font-family:'Barokah Signature';-inkscape-font-specification:'Barokah Signature, Normal';font-variant-ligatures:normal;font-variant-caps:normal;font-variant-numeric:normal;font-variant-east-asian:normal;fill:#ffffff;stroke-width:0.748707"
     d="m 438.41431,83.87596 q 0,-5.651254 0.28002,-11.302508 0.28001,-5.676711 0.89096,-11.277053 0.6364,-5.625798 1.65465,-11.175228 1.01824,-5.54943 2.49469,-11.022492 1.04371,-3.818415 2.29105,-7.535005 1.27281,-3.742047 2.80018,-7.254989 1.52736,-3.512942 3.28383,-6.72041 1.78193,-3.207469 3.79296,-5.931272 0.96733,-1.298261 2.03649,-2.4183294 1.06916,-1.1455245 2.18922,-1.9855758 1.12007,-0.8400514 2.2656,-1.3237173 1.17098,-0.4836659 2.26559,-0.4836659 1.29826,0 2.29105,0.6109464 0.99279,0.5854904 1.73101,1.5782783 0.73823,0.9927879 1.2219,2.2655929 0.50912,1.2473488 0.81459,2.5710658 0.30547,1.323718 0.43276,2.596523 0.12728,1.272805 0.12728,2.265593 0,2.596522 -0.4073,5.447605 -0.4073,2.851083 -1.12007,5.803991 -0.68732,2.952908 -1.60373,5.956727 -0.91642,2.978364 -1.93467,5.88036 -0.99279,2.876539 -2.03649,5.600342 -1.0437,2.698346 -1.98557,5.09122 -2.11286,5.345781 -4.45482,10.64065 -2.34196,5.269413 -4.83666,10.487913 -2.46924,5.193045 -5.06576,10.360633 -2.57107,5.167589 -5.19305,10.309721 0.12728,4.123888 0.30548,8.222324 0.17819,4.07297 0.40729,8.19686 0.28002,-1.47645 0.73823,-3.48749 0.48367,-1.98557 1.17098,-4.20025 0.68732,-2.214682 1.60374,-4.480275 0.91641,-2.291049 2.0874,-4.352994 1.09461,-1.883751 2.39287,-3.462029 1.32372,-1.603735 2.80017,-2.749259 1.50191,-1.170981 3.1311,-1.807383 1.65465,-0.661859 3.41112,-0.661859 2.13831,0 3.69113,0.992788 1.55282,0.992788 2.57107,2.54561 1.01824,1.552822 1.50191,3.46203 0.50912,1.909207 0.50912,3.742047 0,1.578278 -0.28002,3.156556 -0.25456,1.578278 -0.76368,3.105648 2.13831,-0.25456 4.37845,-0.66186 2.24014,-0.4073 4.50573,-1.069159 2.26559,-0.661858 4.55664,-1.62919 2.31651,-0.992788 4.5821,-2.392873 0.50912,-0.33093 1.0437,-0.33093 0.35639,0 0.58549,0.152737 0.25456,0.152736 0.30547,0.432754 0.0764,0.280017 -0.12728,0.636402 -0.17819,0.356385 -0.68731,0.789139 -0.89097,0.738227 -2.24014,1.450998 -1.34917,0.712771 -2.97836,1.374629 -1.62919,0.636403 -3.48749,1.221893 -1.85829,0.58549 -3.79296,1.06916 -1.93466,0.45821 -3.86932,0.81459 -1.90921,0.35639 -3.69114,0.56004 -0.86551,1.9092 -2.0874,3.58931 -1.19644,1.70555 -2.74926,2.97836 -1.52736,1.2728 -3.41112,2.01103 -1.88375,0.73823 -4.12388,0.73823 -2.52016,0 -4.76029,-1.06916 -2.21469,-1.0437 -4.02207,-2.7238 -0.43275,1.85829 -0.71277,3.41112 -0.28002,1.55282 -0.48367,2.62198 -0.0764,0.45821 -0.33092,0.81459 -0.25457,0.35639 -0.61095,0.58549 -0.33093,0.25456 -0.73823,0.35639 -0.4073,0.12728 -0.81459,0.12728 -0.78914,0 -1.451,-0.45821 -0.6364,-0.43276 -0.71277,-1.34918 -0.71277,-7.78956 -1.14553,-15.57913 -0.43275,-7.815023 -0.43275,-15.73187 z m 21.30676,-34.085718 q 0.8655,-2.240137 1.80738,-4.811203 0.96733,-2.596523 1.90921,-5.345781 0.94187,-2.774715 1.78192,-5.651255 0.86551,-2.876539 1.50191,-5.702166 0.66186,-2.825627 1.0437,-5.523974 0.38185,-2.698347 0.38185,-5.116676 0,-0.585491 -0.0764,-1.450998 -0.0509,-0.890963 -0.20365,-1.858295 -0.15274,-0.992788 -0.43276,-1.96012 -0.28001,-0.992788 -0.71277,-1.781927 -0.43275,-0.7891392 -1.0437,-1.2728051 -0.61094,-0.4836659 -1.45099,-0.4836659 -0.71277,0 -1.451,0.3818415 -0.71277,0.3818415 -1.42554,1.0182445 -0.71277,0.610946 -1.40009,1.400085 -0.66186,0.789139 -1.2728,1.62919 -1.98558,2.749259 -3.69114,5.931272 -1.70556,3.182012 -3.1311,6.669498 -1.42554,3.46203 -2.59652,7.153164 -1.14553,3.665679 -2.0874,7.407726 -1.32372,5.371237 -2.24014,10.76793 -0.89096,5.371237 -1.42554,10.793387 -0.53458,5.396693 -0.76368,10.818842 -0.22911,5.42215 -0.22911,10.844299 0,1.221893 0,2.41833 0,1.17098 0.0255,2.392873 2.24014,-4.760291 4.48027,-9.546037 2.26559,-4.785747 4.42936,-9.59695 2.18923,-4.836659 4.27663,-9.698775 2.0874,-4.887571 3.99661,-9.826054 z m -12.62623,54.374228 q 0.94188,-0.30547 2.24014,-0.58549 1.32371,-0.30547 2.82562,-0.56003 1.50191,-0.25456 3.10565,-0.48367 1.62919,-0.2291 3.15655,-0.4073 1.55283,-0.17819 2.95291,-0.33093 1.42554,-0.15273 2.4947,-0.25456 0.58549,-1.731011 0.91642,-3.56385 0.35639,-1.832839 0.35639,-3.58931 0,-1.120069 -0.20365,-2.443786 -0.20365,-1.349173 -0.71277,-2.520154 -0.50913,-1.196437 -1.40009,-1.985576 -0.89096,-0.789139 -2.26559,-0.789139 -1.34918,0 -2.64744,0.509122 -1.29826,0.509122 -2.49469,1.450998 -1.19644,0.916419 -2.2656,2.240137 -1.06915,1.323717 -1.98557,2.952907 -1.32372,2.367418 -2.34196,5.040308 -0.99279,2.647433 -1.73102,5.320323 z m 7.33136,6.69496 q 1.55282,0 2.87654,-0.58549 1.32371,-0.58549 2.39287,-1.57828 1.06916,-0.96733 1.88375,-2.21468 0.8146,-1.24735 1.37463,-2.57107 -1.98558,0.15274 -4.20026,0.35639 -2.18922,0.20365 -4.37845,0.53457 -2.16376,0.30548 -4.20025,0.73823 -2.01103,0.43276 -3.66568,1.0437 0.58549,0.76368 1.50191,1.52737 0.94188,0.76368 2.03649,1.37463 1.09461,0.61094 2.24013,0.99279 1.14553,0.38184 2.13832,0.38184 z" /><path
     id="path27"
     style="font-style:normal;font-variant:normal;font-weight:normal;font-stretch:normal;font-size:50.9122px;font-family:'Barokah Signature';-inkscape-font-specification:'Barokah Signature, Normal';font-variant-ligatures:normal;font-variant-caps:normal;font-variant-numeric:normal;font-variant-east-asian:normal;fill:#ffffff;stroke-width:0.748707"
     d="m 484.34905,100.60062 q 0,-2.418331 0.71277,-4.683924 0.68732,-2.265593 1.93466,-4.276625 1.27281,-2.011032 3.00382,-3.665679 1.73102,-1.680102 3.76751,-2.876539 2.06194,-1.196437 4.35299,-1.858295 2.29105,-0.661859 4.68392,-0.661859 1.68011,0 2.95291,0.381842 1.29826,0.381841 2.13831,1.069156 0.86551,0.687314 1.29826,1.654646 0.43276,0.941876 0.43276,2.112857 0,1.858295 -0.6364,3.512941 -0.61095,1.654647 -1.70556,3.054733 -1.09462,1.400085 -2.59653,2.520153 -1.47645,1.120069 -3.18201,1.909208 -1.70556,0.763683 -3.58931,1.196437 -1.85829,0.407298 -3.71659,0.407298 -1.57828,0 -3.08019,-0.25456 -1.50191,-0.280019 -2.87654,-0.814597 -0.0254,0.203649 -0.0254,0.432754 0,0.229105 0,0.432753 0,2.29105 0.73822,3.81842 0.76369,1.52736 2.03649,2.44378 1.27281,0.91642 2.97837,1.29826 1.73101,0.4073 3.66567,0.4073 2.13832,0 4.68393,-0.43275 2.54561,-0.4073 5.2185,-1.17098 2.69834,-0.76369 5.37124,-1.83284 2.69834,-1.09462 5.14213,-2.41833 2.44378,-1.34918 4.48027,-2.876542 2.06195,-1.527366 3.46203,-3.207469 0.35639,-0.432754 0.71277,-0.58549 0.35639,-0.178193 0.66186,-0.178193 0.30547,0 0.53458,0.178193 0.25456,0.152736 0.33093,0.432753 0.0764,0.254561 -0.0255,0.610947 -0.0764,0.356385 -0.43275,0.738227 -1.6801,1.934663 -3.97115,3.691134 -2.2656,1.75647 -4.91303,3.25838 -2.64744,1.47645 -5.54943,2.69835 -2.87654,1.22189 -5.80399,2.06194 -2.902,0.86551 -5.75308,1.32372 -2.82563,0.45821 -5.34578,0.45821 -2.46924,0 -4.65847,-0.50912 -2.18922,-0.50913 -3.84387,-1.70556 -1.65465,-1.19644 -2.62198,-3.18201 -0.96733,-1.98558 -0.96733,-4.91303 z m 4.63301,-5.091222 q 1.52737,1.170981 3.43657,1.832839 1.90921,0.636403 3.81842,0.636403 2.18922,0 4.12389,-0.814595 1.93466,-0.814596 3.38566,-2.189225 1.451,-1.374629 2.29105,-3.156556 0.84005,-1.807384 0.84005,-3.742047 0,-0.687315 -0.20365,-1.272805 -0.20365,-0.610947 -0.66186,-1.0437 -0.45821,-0.45821 -1.19643,-0.687315 -0.71278,-0.254561 -1.75648,-0.254561 -2.39287,0 -4.63301,0.840051 -2.21468,0.840052 -4.07297,2.291049 -1.83284,1.450998 -3.23293,3.411118 -1.37463,1.934663 -2.13831,4.149344 z" /><path
     id="path29"
     style="font-style:normal;font-variant:normal;font-weight:normal;font-stretch:normal;font-size:50.9122px;font-family:'Barokah Signature';-inkscape-font-specification:'Barokah Signature, Normal';font-variant-ligatures:normal;font-variant-caps:normal;font-variant-numeric:normal;font-variant-east-asian:normal;fill:#ffffff;stroke-width:0.748707"
     d="m 515.88278,62.416467 q 4.5821,-0.610946 8.65508,-1.221892 4.07297,-0.610947 7.78956,-1.247349 0.22911,-0.814595 0.76369,-2.698347 0.53458,-1.909207 1.29826,-4.454818 0.76368,-2.54561 1.73101,-5.498517 0.96733,-2.978364 2.06195,-5.956728 1.09461,-2.978363 2.29105,-5.727622 1.19643,-2.774715 2.41833,-4.913028 1.22189,-2.138312 2.44378,-3.411117 1.22189,-1.272805 2.34196,-1.272805 0.68732,0 1.17098,0.407297 0.48367,0.381842 0.76369,1.069157 0.30547,0.687314 0.43275,1.654646 0.12728,0.941876 0.12728,2.061944 0,1.552822 -0.2291,3.487486 -0.20365,1.909208 -0.58549,4.072976 -0.38185,2.163769 -0.91642,4.531186 -0.50913,2.341961 -1.14553,4.785747 -0.61095,2.418329 -1.29826,4.862115 -0.66186,2.443786 -1.37463,4.785747 6.21129,-1.221893 11.27705,-2.41833 5.06577,-1.196436 9.44422,-2.316505 0.28001,-0.07637 0.50912,-0.101824 0.2291,-0.02546 0.43275,-0.02546 0.68732,0 1.0437,0.280017 0.35639,0.254561 0.35639,0.636402 0,0.356386 -0.35639,0.712771 -0.35638,0.356386 -1.12007,0.534578 -4.76029,1.094613 -10.2588,2.367418 -5.49852,1.272805 -12.04074,2.723802 -2.85108,9.520582 -6.33857,18.990251 -3.46203,9.444214 -7.68774,18.404761 0,2.82563 0.33093,5.57489 0.35638,2.74925 1.09461,5.47306 0.50912,1.83284 1.19644,3.5384 0.71277,1.70555 1.65464,3.00382 0.96734,1.29826 2.18923,2.06194 1.22189,0.78914 2.74926,0.78914 2.54561,0 5.32032,-1.80738 2.77472,-1.80739 5.6258,-5.06577 2.26559,-2.57106 4.55664,-6.21129 2.29105,-3.66568 4.73484,-8.655071 0.40729,-0.814595 1.06915,-0.814595 0.30548,0 0.56004,0.203648 0.28001,0.178193 0.43275,0.509122 0.15274,0.305474 0.15274,0.738227 0,0.407298 -0.22911,0.865508 -2.52015,4.963941 -4.86211,8.629621 -2.34196,3.66568 -4.60756,6.33857 -1.55282,1.85829 -3.23292,3.30929 -1.65465,1.47645 -3.36021,2.4947 -1.6801,1.0437 -3.38566,1.57828 -1.70556,0.56003 -3.3602,0.56003 -1.90921,0 -3.46203,-0.68732 -1.52737,-0.66185 -2.77472,-1.83283 -1.24735,-1.14553 -2.21468,-2.72381 -0.94187,-1.55282 -1.65465,-3.3602 -0.68731,-1.78193 -1.17098,-3.71659 -0.48366,-1.93467 -0.76368,-3.81842 -0.30547,-1.90921 -0.43275,-3.66568 -0.12728,-1.756468 -0.12728,-3.232922 0,-3.334749 0.43275,-7.407725 0.43275,-4.072976 1.17098,-8.578706 0.76368,-4.50573 1.78193,-9.26602 1.0437,-4.760291 2.26559,-9.495126 -3.56385,0.763683 -7.3059,1.578278 -3.7675,0.814596 -7.84048,1.680103 -0.2291,0.05091 -0.43275,0.07637 -0.22911,0.02546 -0.43276,0.02546 -1.0437,0 -1.57827,-0.534578 -0.53458,-0.534578 -0.50913,-1.196436 0,-0.661859 0.61095,-1.272805 0.58549,-0.636403 1.80738,-0.78914 z m 26.4998,-4.251168 q 1.0437,-3.487486 2.01104,-7.178621 0.99278,-3.71659 1.75647,-7.280444 0.76368,-3.563854 1.22189,-6.847691 0.45821,-3.309293 0.45821,-5.982184 0,-0.865507 -0.12728,-1.349173 -0.10183,-0.483666 -0.38184,-0.483666 -0.22911,0 -0.61095,0.534578 -0.35638,0.509122 -0.86551,1.476454 -0.48366,0.941875 -1.09461,2.316505 -0.58549,1.349173 -1.24735,3.054732 -0.81459,2.0874 -1.70556,4.683922 -0.8655,2.571067 -1.78192,5.498518 -0.89097,2.901996 -1.80739,6.109464 -0.89096,3.182013 -1.78192,6.542218 1.57827,-0.280017 3.05473,-0.534578 1.47645,-0.280017 2.90199,-0.560034 z m -6.61858,3.767503 q -0.94188,3.767502 -1.80739,7.63683 -0.8655,3.843871 -1.57827,7.560462 -0.71277,3.71659 -1.27281,7.254988 -0.53458,3.512942 -0.84005,6.644042 3.33475,-7.458637 6.16038,-15.019099 2.82562,-7.585918 5.2185,-15.375485 -2.85109,0.610947 -5.88036,1.298262 z" /><path
     id="path31"
     style="font-style:normal;font-variant:normal;font-weight:normal;font-stretch:normal;font-size:50.9122px;font-family:'Barokah Signature';-inkscape-font-specification:'Barokah Signature, Normal';font-variant-ligatures:normal;font-variant-caps:normal;font-variant-numeric:normal;font-variant-east-asian:normal;fill:#ffffff;stroke-width:0.748707"
     d="m 557.09781,118.29261 q 0,-1.34918 0.50912,-2.64744 0.50912,-1.29826 1.34918,-2.52015 0.84005,-1.19644 1.93466,-2.31651 1.12007,-1.09461 2.3165,-2.0874 1.2219,-0.96733 2.44379,-1.83284 1.24735,-0.84005 2.31651,-1.52736 -0.38185,-0.43275 -0.78914,-0.84005 -0.38185,-0.43276 -0.78914,-0.86551 -0.73823,-0.78914 -1.70556,-1.65465 -0.94188,-0.89096 -1.93467,-1.83284 -0.96733,-0.941871 -1.9092,-1.960115 -0.91642,-1.018244 -1.62919,-2.087401 -0.73823,-1.094612 -1.17098,-2.240136 -0.45821,-1.145525 -0.45821,-2.341962 0,-1.883751 0.89096,-3.538398 0.86551,-1.680102 2.26559,-2.927451 1.42554,-1.247349 3.20747,-1.96012 1.78193,-0.738227 3.58931,-0.738227 2.18923,0 3.41112,1.196437 1.22189,1.170981 1.22189,3.411117 0,0.687315 -0.15273,1.50191 -0.15274,0.814596 -0.43276,1.629191 -0.25456,0.814595 -0.6364,1.552822 -0.35639,0.712771 -0.8146,1.196437 -0.45821,0.483666 -1.24735,0.483666 -0.40729,0 -0.81459,-0.152737 -0.4073,-0.152737 -0.71277,-0.432754 -0.28002,-0.280017 -0.4073,-0.687314 -0.10182,-0.407298 0.0509,-0.941876 0.1782,-0.560034 0.56004,-1.094613 0.38184,-0.560034 0.76368,-1.145524 0.38184,-0.58549 0.66186,-1.196437 0.30547,-0.636402 0.30547,-1.349173 0,-1.909208 -1.93466,-1.909208 -1.24735,0 -2.44379,0.560035 -1.17098,0.534578 -2.11285,1.450997 -0.91642,0.890964 -1.47646,2.061944 -0.56003,1.170981 -0.56003,2.443786 0,0.967332 0.4073,1.934664 0.43275,0.941875 1.09461,1.858295 0.68731,0.91642 1.55282,1.807383 0.89096,0.865508 1.78193,1.680103 0.89096,0.789139 1.73101,1.50191 0.84005,0.712769 1.47646,1.323719 0.58549,0.58549 1.17098,1.17098 0.58549,0.58549 1.14552,1.22189 4.5821,-2.59652 9.49513,-4.607553 4.91302,-2.036488 9.8006,-3.843871 0.43275,-0.152737 0.76368,-0.152737 0.48366,0 0.78914,0.229105 0.30547,0.229105 0.35638,0.560035 0.0509,0.305473 -0.20365,0.661858 -0.25456,0.330929 -0.8655,0.560034 -2.24014,0.814596 -4.63301,1.731015 -2.36742,0.890964 -4.78575,1.909204 -2.39287,0.99279 -4.8112,2.11286 -2.39288,1.12007 -4.65847,2.36742 1.27281,1.6801 2.06194,3.48748 0.78914,1.80739 0.78914,3.79296 0,2.29105 -1.06915,4.32754 -1.06916,2.03649 -2.80017,3.56385 -1.73102,1.55283 -3.92024,2.44379 -2.16377,0.89096 -4.353,0.89096 -1.17098,0 -2.26559,-0.28001 -1.06916,-0.28002 -1.88375,-0.89097 -0.84005,-0.61094 -1.32372,-1.60373 -0.50912,-0.99279 -0.50912,-2.41833 z m 2.18923,-0.0255 q 0,0.73823 0.33092,1.24735 0.33093,0.53458 0.89097,0.86551 0.56003,0.35638 1.24735,0.50912 0.71277,0.17819 1.47645,0.17819 1.52737,0 2.97836,-0.84005 1.451,-0.84005 2.57107,-2.13831 1.12007,-1.29826 1.80738,-2.85108 0.68732,-1.55283 0.68732,-2.97837 0,-1.40008 -0.58549,-2.74926 -0.56004,-1.32371 -1.50191,-2.62198 -0.89097,0.5855 -1.98558,1.32372 -1.06915,0.76369 -2.18922,1.65465 -1.09461,0.91642 -2.13831,1.90921 -1.01825,1.01824 -1.83284,2.0874 -0.78914,1.06915 -1.27281,2.18922 -0.48366,1.12007 -0.48366,2.21468 z" /><path
     id="path33"
     style="font-style:normal;font-variant:normal;font-weight:normal;font-stretch:normal;font-size:50.9122px;font-family:'Barokah Signature';-inkscape-font-specification:'Barokah Signature, Normal';font-variant-ligatures:normal;font-variant-caps:normal;font-variant-numeric:normal;font-variant-east-asian:normal;fill:#ffffff;stroke-width:0.748707"
     d="m 598.10997,104.74996 q 0.10182,-1.0437 0.48366,-1.80738 0.38184,-0.78914 0.91642,-1.29826 0.53458,-0.53458 1.17098,-0.78914 0.66186,-0.25456 1.29826,-0.25456 0.63641,0 1.2219,0.25456 0.58549,0.25456 1.01824,0.78914 0.43275,0.50912 0.6364,1.29826 0.22911,0.76368 0.12728,1.80738 -0.10182,0.94188 -0.45821,1.65465 -0.35638,0.71277 -0.89096,1.17098 -0.53458,0.48367 -1.17098,0.71277 -0.6364,0.25456 -1.29826,0.25456 -0.63641,0 -1.24735,-0.25456 -0.58549,-0.2291 -1.01825,-0.71277 -0.43275,-0.45821 -0.66185,-1.17098 -0.22911,-0.71277 -0.12728,-1.65465 z" /></g></svg>
